<svg xmlns="http://www.w3.org/2000/svg" xmlns:xlink="http://www.w3.org/1999/xlink" width="500" zoomAndPan="magnify" viewBox="0 0 375 374.999991" height="500" preserveAspectRatio="xMidYMid meet" version="1.0"><defs><g/></defs><g fill="#a2bda2" fill-opacity="1"><g transform="translate(93.6979, 277.447826)"><g><path d="M 90.703125 -166.875 C 107.910156 -166.875 122.734375 -162.863281 135.171875 -154.84375 C 147.617188 -146.832031 157.097656 -136.476562 163.609375 -123.78125 C 170.128906 -111.082031 173.390625 -97.71875 173.390625 -83.6875 C 173.390625 -59.300781 165.828125 -39.421875 150.703125 -24.046875 C 135.585938 -8.679688 115.503906 -0.664062 90.453125 0 L 8.015625 0 L 6.515625 -8.015625 C 11.359375 -11.191406 18.457031 -14.617188 27.8125 -18.296875 L 27.8125 -149.84375 L 10.015625 -152.09375 L 10.265625 -164.875 C 34.328125 -166.207031 61.140625 -166.875 90.703125 -166.875 Z M 84.9375 -20.796875 C 99.300781 -20.796875 110.953125 -26.554688 119.890625 -38.078125 C 128.828125 -49.609375 133.296875 -64.3125 133.296875 -82.1875 C 133.296875 -96.050781 130.414062 -108.992188 124.65625 -121.015625 C 118.894531 -133.046875 111.421875 -141.816406 102.234375 -147.328125 L 65.890625 -143.578125 L 65.890625 -23.796875 C 72.742188 -21.796875 79.09375 -20.796875 84.9375 -20.796875 Z M 84.9375 -20.796875 "/></g></g></g><g fill="#a2bda2" fill-opacity="1"><g transform="translate(205.903041, 106.432352)"><g><path d="M 5.46875 -4.640625 L 5.109375 -4.796875 C 5.09375 -4.828125 5.078125 -4.84375 5.03125 -4.890625 C 5 -4.9375 4.9375 -4.96875 4.890625 -5.015625 C 4.828125 -5.0625 4.75 -5.125 4.734375 -5.21875 C 4.671875 -5.3125 4.59375 -5.375 4.484375 -5.484375 C 4.453125 -5.578125 4.421875 -5.640625 4.375 -5.71875 C 4.328125 -5.796875 4.328125 -5.84375 4.296875 -5.90625 C 4.234375 -6.046875 4.1875 -6.21875 4.140625 -6.359375 C 4.15625 -6.390625 4.15625 -6.46875 4.109375 -6.578125 C 4.109375 -6.609375 4.125 -6.65625 4.140625 -6.703125 C 4.125 -6.75 4.140625 -6.796875 4.140625 -6.828125 C 4.109375 -6.84375 4.109375 -6.921875 4.078125 -7.015625 L 4.09375 -7.65625 C 4.125 -7.6875 4.15625 -7.75 4.1875 -7.78125 C 4.203125 -7.828125 4.21875 -7.875 4.21875 -7.90625 C 4.34375 -8.109375 4.46875 -8.234375 4.5625 -8.3125 C 4.609375 -8.359375 4.625 -8.375 4.703125 -8.390625 C 4.8125 -8.453125 4.953125 -8.515625 5.109375 -8.515625 C 5.125 -8.515625 5.203125 -8.53125 5.328125 -8.546875 C 5.390625 -8.53125 5.46875 -8.515625 5.515625 -8.5 C 5.734375 -8.453125 5.84375 -8.390625 5.921875 -8.328125 C 6 -8.28125 6.078125 -8.25 6.125 -8.203125 C 6.171875 -8.140625 6.203125 -8.09375 6.234375 -8.015625 C 6.328125 -7.921875 6.4375 -7.78125 6.53125 -7.609375 C 6.609375 -7.4375 6.625 -7.25 6.65625 -7.046875 C 6.65625 -7.015625 6.671875 -6.953125 6.6875 -6.90625 C 6.6875 -6.828125 6.71875 -6.734375 6.734375 -6.59375 C 6.734375 -6.484375 6.734375 -6.328125 6.71875 -6.171875 C 6.734375 -6.046875 6.75 -5.90625 6.71875 -5.796875 L 6.671875 -5.4375 C 6.671875 -5.421875 6.65625 -5.359375 6.640625 -5.3125 C 6.609375 -5.265625 6.59375 -5.21875 6.578125 -5.171875 C 6.5625 -5.109375 6.5625 -5.046875 6.515625 -5.015625 C 6.484375 -4.9375 6.421875 -4.875 6.328125 -4.8125 C 6.15625 -4.6875 5.984375 -4.609375 5.84375 -4.59375 C 5.828125 -4.609375 5.78125 -4.609375 5.734375 -4.625 C 5.703125 -4.59375 5.6875 -4.59375 5.6875 -4.59375 C 5.65625 -4.609375 5.640625 -4.609375 5.609375 -4.609375 C 5.578125 -4.609375 5.53125 -4.625 5.46875 -4.640625 Z M 0.546875 3.359375 C 0.734375 3.40625 0.875 3.390625 1.0625 3.34375 C 1.4375 3.25 1.671875 2.96875 1.765625 2.53125 L 3.140625 -3.765625 C 3.234375 -3.59375 3.40625 -3.4375 3.609375 -3.3125 C 3.6875 -3.28125 3.75 -3.234375 3.8125 -3.203125 C 3.890625 -3.15625 3.96875 -3.09375 4.046875 -3.03125 L 4.453125 -2.84375 C 4.578125 -2.8125 4.703125 -2.78125 4.796875 -2.75 L 4.828125 -2.703125 C 5.09375 -2.609375 5.3125 -2.515625 5.515625 -2.453125 C 5.703125 -2.390625 6 -2.28125 6.4375 -2.1875 C 6.65625 -2.1875 6.90625 -2.140625 7.171875 -2.109375 C 7.46875 -2.078125 7.6875 -2.03125 7.875 -2.015625 L 8.625 -1.953125 L 9.390625 -1.953125 L 10.078125 -2.015625 C 10.8125 -2.125 11.390625 -2.234375 11.828125 -2.40625 L 12.03125 -2.484375 C 12.296875 -2.546875 12.546875 -2.65625 12.78125 -2.78125 C 13.34375 -3.046875 13.84375 -3.390625 14.265625 -3.78125 C 14.359375 -3.875 14.46875 -3.96875 14.578125 -4.078125 C 14.671875 -4.140625 14.796875 -4.28125 14.953125 -4.453125 C 15.015625 -4.5 15.046875 -4.53125 15.078125 -4.578125 C 15.234375 -4.765625 15.359375 -4.921875 15.390625 -5.09375 C 15.421875 -5.203125 15.40625 -5.296875 15.375 -5.375 C 15.34375 -5.640625 15.203125 -5.859375 15 -6.03125 C 14.90625 -6.1875 14.765625 -6.265625 14.578125 -6.3125 C 14.203125 -6.390625 13.84375 -6.265625 13.53125 -5.875 L 13.5 -5.84375 C 13.390625 -5.765625 13.34375 -5.671875 13.3125 -5.625 C 13.21875 -5.53125 13.09375 -5.390625 12.90625 -5.234375 C 12.671875 -5.046875 12.5 -4.921875 12.359375 -4.859375 C 12.296875 -4.828125 12.25 -4.78125 12.15625 -4.71875 C 12.0625 -4.671875 11.96875 -4.65625 11.859375 -4.59375 L 11.796875 -4.5625 C 11.625 -4.46875 11.390625 -4.390625 11.125 -4.3125 L 10.890625 -4.234375 C 10.625 -4.140625 10.296875 -4.046875 9.875 -4.015625 C 9.703125 -4.03125 9.53125 -4 9.421875 -3.984375 C 9.28125 -3.96875 9.15625 -3.953125 9.046875 -3.96875 C 8.921875 -3.953125 8.828125 -3.953125 8.703125 -3.984375 C 8.5625 -4 8.40625 -4 8.25 -3.984375 C 8.40625 -4.25 8.53125 -4.546875 8.59375 -4.859375 C 8.703125 -5.359375 8.75 -5.8125 8.734375 -6.1875 L 8.734375 -6.40625 C 8.75 -6.625 8.734375 -6.859375 8.6875 -7.109375 L 8.65625 -7.28125 C 8.59375 -7.75 8.484375 -8.109375 8.375 -8.34375 C 8.296875 -8.53125 8.203125 -8.703125 8.109375 -8.84375 C 7.96875 -9.140625 7.765625 -9.453125 7.40625 -9.703125 C 7.28125 -9.84375 7.125 -9.9375 6.953125 -10.015625 C 6.640625 -10.21875 6.28125 -10.375 5.890625 -10.46875 C 5.46875 -10.5625 5.09375 -10.5625 4.734375 -10.484375 C 4.71875 -10.5 4.703125 -10.5 4.671875 -10.46875 C 4.625 -10.46875 4.625 -10.46875 4.609375 -10.46875 L 4.75 -11.09375 C 4.828125 -11.453125 4.78125 -11.765625 4.640625 -11.953125 C 4.484375 -12.171875 4.265625 -12.296875 3.984375 -12.359375 C 3.75 -12.40625 3.515625 -12.375 3.265625 -12.25 C 3.015625 -12.140625 2.859375 -11.890625 2.78125 -11.53125 L -0.203125 2.09375 C -0.296875 2.53125 -0.203125 2.890625 0.078125 3.125 C 0.25 3.25 0.375 3.328125 0.546875 3.359375 Z M 0.546875 3.359375 "/></g></g></g><g fill="#a2bda2" fill-opacity="1"><g transform="translate(218.941244, 109.41761)"><g><path d="M 5.828125 -3.609375 L 5.5625 -3.734375 C 5.453125 -3.84375 5.375 -3.921875 5.265625 -3.96875 C 5.203125 -4.046875 5.1875 -4.09375 5.140625 -4.109375 C 5.109375 -4.171875 5.078125 -4.25 5.078125 -4.296875 C 5.0625 -4.296875 5.0625 -4.375 5.046875 -4.40625 C 5.03125 -4.453125 5.03125 -4.46875 5.03125 -4.53125 C 5.015625 -4.546875 5.015625 -4.609375 5 -4.6875 C 5 -4.6875 5.015625 -4.765625 5 -4.84375 C 5.03125 -4.921875 5.015625 -4.96875 5.03125 -5.03125 C 5.015625 -5.09375 5.015625 -5.109375 5.03125 -5.140625 C 5.09375 -5.25 5.125 -5.375 5.140625 -5.453125 C 5.234375 -5.625 5.296875 -5.765625 5.34375 -5.828125 C 5.390625 -5.890625 5.4375 -5.984375 5.5 -6.015625 C 5.546875 -6.078125 5.5625 -6.125 5.625 -6.171875 C 5.640625 -6.21875 5.671875 -6.265625 5.703125 -6.28125 C 5.734375 -6.265625 5.765625 -6.328125 5.78125 -6.328125 C 5.90625 -6.453125 6.03125 -6.53125 6.15625 -6.59375 C 6.703125 -6.796875 7.078125 -6.828125 7.3125 -6.71875 C 7.46875 -6.671875 7.609375 -6.640625 7.75 -6.5625 C 7.90625 -6.5 8.015625 -6.4375 8.03125 -6.390625 C 8.140625 -6.34375 8.203125 -6.28125 8.21875 -6.21875 C 8.3125 -6.1875 8.34375 -6.140625 8.34375 -6.109375 C 8.390625 -6.078125 8.4375 -6.0625 8.46875 -6 C 8.484375 -5.984375 8.5 -5.953125 8.53125 -5.921875 C 8.515625 -5.890625 8.515625 -5.859375 8.53125 -5.828125 C 8.53125 -5.78125 8.53125 -5.78125 8.546875 -5.78125 C 8.5625 -5.734375 8.5625 -5.734375 8.578125 -5.71875 C 8.578125 -5.6875 8.546875 -5.625 8.46875 -5.484375 C 8.375 -5.28125 8.3125 -5.15625 8.28125 -5.078125 C 8.234375 -5.03125 8.203125 -4.984375 8.1875 -4.9375 C 8.140625 -4.828125 7.96875 -4.625 7.703125 -4.296875 C 7.625 -4.21875 7.59375 -4.15625 7.515625 -4.109375 C 7.453125 -4.046875 7.359375 -3.984375 7.28125 -3.921875 C 6.984375 -3.734375 6.78125 -3.640625 6.640625 -3.640625 C 6.484375 -3.609375 6.375 -3.609375 6.3125 -3.59375 C 6.25 -3.59375 6.203125 -3.609375 6.171875 -3.59375 C 6.125 -3.59375 6.046875 -3.59375 6.015625 -3.609375 C 5.953125 -3.609375 5.890625 -3.609375 5.828125 -3.609375 Z M 10.171875 0.953125 C 10.359375 1.046875 10.53125 1.078125 10.703125 1.109375 C 10.90625 1.125 11.046875 1.15625 11.203125 1.1875 C 11.578125 1.1875 11.890625 1.171875 12.15625 1.140625 L 12.609375 1.03125 L 13.59375 0.71875 C 13.78125 0.6875 13.90625 0.609375 14.09375 0.515625 C 14.21875 0.453125 14.28125 0.40625 14.359375 0.375 C 14.390625 0.359375 14.515625 0.296875 14.796875 0.171875 L 14.921875 0.09375 C 15.046875 0.046875 15.15625 -0.015625 15.265625 -0.046875 C 15.359375 -0.078125 15.453125 -0.125 15.609375 -0.1875 C 15.71875 -0.265625 15.890625 -0.328125 16.09375 -0.390625 C 16.40625 -0.5 16.640625 -0.6875 16.765625 -0.953125 C 16.84375 -1.125 16.84375 -1.28125 16.828125 -1.46875 C 16.8125 -1.625 16.71875 -1.796875 16.609375 -1.953125 C 16.546875 -2.09375 16.453125 -2.203125 16.296875 -2.28125 C 16.046875 -2.390625 15.765625 -2.40625 15.390625 -2.3125 C 15.375 -2.28125 15.34375 -2.234375 15.234375 -2.234375 C 15.046875 -2.140625 14.890625 -2.09375 14.71875 -2.03125 C 14.59375 -1.96875 14.4375 -1.90625 14.3125 -1.84375 L 14.25 -1.8125 C 14.109375 -1.71875 14 -1.65625 13.890625 -1.625 C 13.671875 -1.484375 13.5625 -1.4375 13.53125 -1.453125 C 13.5 -1.421875 13.421875 -1.421875 13.390625 -1.390625 C 13.3125 -1.34375 13.25 -1.328125 13.15625 -1.28125 C 13.0625 -1.234375 13 -1.203125 12.953125 -1.1875 C 12.890625 -1.171875 12.78125 -1.125 12.671875 -1.078125 C 12.421875 -0.984375 12.21875 -0.921875 12.078125 -0.921875 C 11.640625 -0.84375 11.34375 -0.8125 11.140625 -0.859375 L 11.109375 -0.875 C 11.078125 -0.859375 10.984375 -0.90625 10.875 -0.96875 L 10.609375 -1.109375 C 10.53125 -1.203125 10.5 -1.265625 10.4375 -1.296875 C 10.40625 -1.359375 10.390625 -1.390625 10.328125 -1.4375 C 10.265625 -1.5 10.25 -1.578125 10.21875 -1.640625 C 10.171875 -1.703125 10.15625 -1.78125 10.125 -1.8125 C 10.0625 -2.15625 10.015625 -2.359375 10.015625 -2.421875 C 10 -2.46875 9.984375 -2.53125 10 -2.609375 L 10 -3.15625 L 10.15625 -3.8125 C 10.171875 -3.84375 10.171875 -3.859375 10.1875 -3.890625 C 10.171875 -3.921875 10.1875 -3.953125 10.21875 -3.984375 C 10.203125 -4.046875 10.234375 -4.109375 10.234375 -4.109375 C 10.234375 -4.140625 10.25 -4.171875 10.265625 -4.21875 C 10.28125 -4.25 10.296875 -4.359375 10.296875 -4.484375 C 10.34375 -4.578125 10.375 -4.671875 10.359375 -4.75 C 10.46875 -5 10.53125 -5.234375 10.484375 -5.40625 C 10.59375 -5.671875 10.609375 -5.984375 10.46875 -6.265625 C 10.484375 -6.296875 10.484375 -6.359375 10.46875 -6.40625 C 10.46875 -6.4375 10.453125 -6.453125 10.4375 -6.5 C 10.421875 -6.53125 10.421875 -6.59375 10.390625 -6.671875 C 10.375 -6.796875 10.296875 -6.90625 10.21875 -7.03125 C 10.140625 -7.140625 10.046875 -7.25 9.921875 -7.375 C 9.875 -7.46875 9.75 -7.578125 9.578125 -7.71875 C 9.53125 -7.796875 9.40625 -7.890625 9.25 -8 C 9.171875 -8.09375 9.015625 -8.1875 8.828125 -8.28125 L 8.34375 -8.515625 C 8.234375 -8.5625 8.09375 -8.609375 7.921875 -8.640625 L 7.796875 -8.65625 C 7.515625 -8.765625 7.125 -8.796875 6.5625 -8.75 C 6.3125 -8.75 5.90625 -8.65625 5.375 -8.453125 L 4.8125 -8.140625 L 4.34375 -7.734375 L 4.234375 -7.625 C 4.125 -7.53125 4.015625 -7.421875 3.921875 -7.296875 C 3.84375 -7.140625 3.6875 -6.984375 3.5625 -6.765625 L 3.28125 -6.234375 L 3.09375 -5.578125 C 3.015625 -5.359375 2.984375 -5.03125 2.984375 -4.671875 L 2.96875 -4.34375 L 3.125 -3.65625 L 3.296875 -3.3125 C 3.390625 -3.125 3.609375 -2.84375 3.921875 -2.5 C 4.125 -2.265625 4.390625 -2.0625 4.6875 -1.921875 L 5.171875 -1.71875 C 5.5 -1.625 5.859375 -1.578125 6.296875 -1.5625 L 6.828125 -1.625 C 7.109375 -1.65625 7.390625 -1.75 7.6875 -1.875 L 8 -2.015625 C 8.03125 -1.9375 8.09375 -1.796875 8.109375 -1.640625 C 8.109375 -1.5 8.171875 -1.34375 8.25 -1.15625 C 8.34375 -0.96875 8.40625 -0.796875 8.53125 -0.609375 C 8.609375 -0.4375 8.71875 -0.25 8.84375 -0.0625 C 8.90625 0 8.984375 0.078125 9.046875 0.140625 C 9.109375 0.203125 9.171875 0.296875 9.234375 0.328125 C 9.296875 0.390625 9.359375 0.46875 9.46875 0.53125 C 9.53125 0.609375 9.625 0.65625 9.6875 0.71875 Z M 10.171875 0.953125 "/></g></g></g><g fill="#a2bda2" fill-opacity="1"><g transform="translate(231.588347, 115.752886)"><g><path d="M 6.953125 -1.6875 L 6.71875 -1.984375 C 6.734375 -2.015625 6.71875 -2.0625 6.703125 -2.109375 C 6.6875 -2.171875 6.640625 -2.203125 6.625 -2.296875 C 6.578125 -2.359375 6.546875 -2.453125 6.578125 -2.53125 C 6.5625 -2.640625 6.53125 -2.734375 6.484375 -2.875 C 6.5 -2.953125 6.5 -3.046875 6.5 -3.125 C 6.46875 -3.25 6.484375 -3.28125 6.5 -3.328125 C 6.5 -3.484375 6.53125 -3.65625 6.578125 -3.828125 C 6.59375 -3.859375 6.625 -3.921875 6.640625 -4.03125 C 6.65625 -4.0625 6.6875 -4.09375 6.71875 -4.125 C 6.71875 -4.15625 6.75 -4.1875 6.78125 -4.21875 C 6.75 -4.265625 6.796875 -4.328125 6.78125 -4.421875 L 7.09375 -4.984375 C 7.15625 -5.015625 7.203125 -5.046875 7.25 -5.0625 C 7.28125 -5.109375 7.3125 -5.140625 7.328125 -5.15625 C 7.53125 -5.265625 7.703125 -5.34375 7.828125 -5.375 C 7.875 -5.390625 7.90625 -5.40625 7.96875 -5.375 C 8.109375 -5.390625 8.25 -5.375 8.40625 -5.296875 C 8.40625 -5.296875 8.484375 -5.28125 8.609375 -5.234375 C 8.65625 -5.1875 8.71875 -5.140625 8.75 -5.109375 C 8.9375 -4.96875 9 -4.875 9.046875 -4.78125 C 9.078125 -4.703125 9.140625 -4.640625 9.15625 -4.578125 C 9.171875 -4.5 9.1875 -4.4375 9.171875 -4.359375 C 9.234375 -4.21875 9.25 -4.046875 9.25 -3.859375 C 9.234375 -3.671875 9.1875 -3.484375 9.109375 -3.28125 C 9.09375 -3.265625 9.09375 -3.203125 9.078125 -3.15625 C 9.046875 -3.078125 9.03125 -2.984375 8.984375 -2.859375 C 8.921875 -2.75 8.875 -2.625 8.78125 -2.484375 C 8.734375 -2.359375 8.6875 -2.25 8.609375 -2.140625 L 8.40625 -1.859375 C 8.390625 -1.84375 8.359375 -1.796875 8.328125 -1.75 C 8.28125 -1.734375 8.25 -1.703125 8.21875 -1.65625 C 8.171875 -1.59375 8.125 -1.546875 8.0625 -1.53125 C 8 -1.484375 7.9375 -1.46875 7.828125 -1.453125 C 7.59375 -1.421875 7.40625 -1.421875 7.28125 -1.5 C 7.28125 -1.5 7.234375 -1.53125 7.203125 -1.53125 C 7.15625 -1.53125 7.140625 -1.53125 7.140625 -1.53125 C 7.125 -1.5625 7.109375 -1.5625 7.09375 -1.578125 C 7.046875 -1.609375 7.015625 -1.640625 6.953125 -1.6875 Z M -1.03125 3.25 C -0.890625 3.375 -0.75 3.421875 -0.546875 3.46875 C -0.171875 3.53125 0.15625 3.40625 0.453125 3.046875 L 4.5 -1.953125 C 4.53125 -1.75 4.59375 -1.53125 4.703125 -1.34375 C 4.765625 -1.28125 4.796875 -1.203125 4.859375 -1.140625 C 4.890625 -1.078125 4.9375 -0.984375 4.984375 -0.875 L 5.25 -0.53125 C 5.359375 -0.453125 5.453125 -0.375 5.5 -0.296875 L 5.53125 -0.234375 C 5.71875 -0.03125 5.875 0.140625 6.015625 0.296875 C 6.15625 0.4375 6.390625 0.65625 6.75 0.9375 C 6.921875 1.046875 7.125 1.1875 7.359375 1.34375 C 7.59375 1.5 7.765625 1.640625 7.9375 1.75 L 8.59375 2.125 L 9.265625 2.46875 L 9.90625 2.734375 C 10.609375 2.984375 11.1875 3.125 11.640625 3.171875 L 11.875 3.203125 C 12.140625 3.25 12.40625 3.28125 12.671875 3.265625 C 13.28125 3.265625 13.890625 3.203125 14.4375 3.046875 C 14.578125 3 14.71875 2.984375 14.84375 2.9375 C 14.96875 2.90625 15.140625 2.84375 15.359375 2.75 C 15.421875 2.75 15.46875 2.71875 15.515625 2.703125 C 15.765625 2.59375 15.9375 2.515625 16.046875 2.375 C 16.109375 2.296875 16.15625 2.203125 16.15625 2.109375 C 16.234375 1.875 16.203125 1.59375 16.109375 1.375 C 16.109375 1.1875 16 1.046875 15.84375 0.921875 C 15.5625 0.6875 15.171875 0.640625 14.75 0.84375 L 14.6875 0.859375 C 14.5625 0.890625 14.46875 0.9375 14.40625 0.96875 C 14.296875 1.015625 14.109375 1.078125 13.890625 1.125 C 13.59375 1.1875 13.375 1.21875 13.21875 1.21875 C 13.15625 1.21875 13.078125 1.234375 12.96875 1.234375 C 12.875 1.25 12.78125 1.25 12.65625 1.234375 L 12.59375 1.25 C 12.375 1.234375 12.140625 1.203125 11.875 1.15625 L 11.640625 1.125 C 11.359375 1.078125 11.015625 1.015625 10.625 0.859375 C 10.484375 0.765625 10.328125 0.71875 10.1875 0.6875 C 10.0625 0.640625 9.953125 0.578125 9.875 0.53125 C 9.75 0.484375 9.65625 0.421875 9.5625 0.34375 C 9.4375 0.28125 9.3125 0.21875 9.171875 0.15625 C 9.421875 -0.015625 9.671875 -0.21875 9.875 -0.484375 C 10.203125 -0.875 10.4375 -1.25 10.609375 -1.609375 L 10.6875 -1.796875 C 10.8125 -1.96875 10.890625 -2.203125 10.953125 -2.4375 L 11 -2.59375 C 11.171875 -3.046875 11.234375 -3.421875 11.21875 -3.6875 C 11.25 -3.890625 11.25 -4.078125 11.21875 -4.25 C 11.234375 -4.59375 11.171875 -4.953125 10.984375 -5.328125 C 10.90625 -5.5 10.828125 -5.671875 10.71875 -5.8125 C 10.515625 -6.15625 10.28125 -6.453125 9.96875 -6.703125 C 9.640625 -6.96875 9.296875 -7.140625 8.96875 -7.25 C 8.9375 -7.265625 8.921875 -7.265625 8.875 -7.265625 C 8.84375 -7.265625 8.84375 -7.265625 8.84375 -7.28125 L 9.25 -7.78125 C 9.46875 -8.0625 9.546875 -8.34375 9.53125 -8.59375 C 9.46875 -8.84375 9.328125 -9.0625 9.109375 -9.25 C 8.921875 -9.40625 8.703125 -9.46875 8.4375 -9.484375 C 8.15625 -9.46875 7.890625 -9.328125 7.671875 -9.046875 L -1.125 1.78125 C -1.421875 2.140625 -1.46875 2.484375 -1.34375 2.828125 C -1.234375 3.015625 -1.15625 3.15625 -1.03125 3.25 Z M -1.03125 3.25 "/></g></g></g><g fill="#a2bda2" fill-opacity="1"><g transform="translate(241.882664, 124.498999)"><g><path d="M 7.953125 -3.046875 C 7.796875 -3.234375 7.890625 -3.46875 8.21875 -3.734375 L 8.703125 -4 C 8.828125 -4.03125 8.90625 -4.078125 8.9375 -4.046875 C 8.96875 -4.046875 9.015625 -4.078125 9.046875 -4.09375 C 9.078125 -4.0625 9.109375 -4.09375 9.15625 -4.09375 C 9.171875 -4.125 9.171875 -4.125 9.203125 -4.109375 C 9.234375 -4.140625 9.25 -4.125 9.28125 -4.125 C 9.328125 -4.09375 9.328125 -4.078125 9.375 -4.09375 C 9.375 -4.09375 9.390625 -4.078125 9.40625 -4.046875 C 9.4375 -4.03125 9.515625 -3.9375 9.609375 -3.796875 C 9.671875 -3.71875 9.71875 -3.65625 9.75 -3.625 C 9.796875 -3.578125 9.796875 -3.5 9.78125 -3.390625 C 9.828125 -3.328125 9.828125 -3.265625 9.828125 -3.21875 C 9.828125 -3.15625 9.828125 -3.125 9.78125 -3.078125 C 9.796875 -3.03125 9.796875 -2.984375 9.78125 -2.921875 C 9.765625 -2.875 9.734375 -2.859375 9.71875 -2.8125 C 9.6875 -2.78125 9.65625 -2.765625 9.59375 -2.703125 C 9.546875 -2.671875 9.5 -2.640625 9.46875 -2.640625 C 9.4375 -2.640625 9.40625 -2.609375 9.375 -2.59375 C 9.359375 -2.578125 9.296875 -2.578125 9.265625 -2.5625 C 9.234375 -2.578125 9.171875 -2.578125 9.140625 -2.5625 C 9.109375 -2.578125 9.046875 -2.5625 9.015625 -2.5625 C 8.953125 -2.5625 8.90625 -2.578125 8.859375 -2.59375 C 8.84375 -2.578125 8.78125 -2.59375 8.78125 -2.59375 C 8.734375 -2.59375 8.703125 -2.640625 8.65625 -2.640625 C 8.625 -2.671875 8.5625 -2.671875 8.5625 -2.6875 C 8.515625 -2.6875 8.5 -2.734375 8.453125 -2.734375 C 8.421875 -2.734375 8.390625 -2.75 8.3125 -2.796875 C 8.140625 -2.875 8.03125 -2.9375 7.953125 -3.046875 Z M 5.921875 1.890625 C 6.015625 1.984375 6.09375 2.078125 6.234375 2.171875 C 6.328125 2.265625 6.4375 2.390625 6.515625 2.484375 L 6.5625 2.546875 C 6.875 2.84375 7.265625 3.109375 7.703125 3.3125 C 7.75 3.359375 7.828125 3.390625 7.890625 3.4375 C 7.9375 3.453125 8 3.5 8.046875 3.53125 C 8.125 3.578125 8.1875 3.578125 8.265625 3.625 C 8.3125 3.640625 8.375 3.671875 8.46875 3.703125 C 8.53125 3.734375 8.625 3.796875 8.78125 3.859375 C 8.921875 3.9375 9.078125 4 9.265625 4.046875 L 9.390625 4.109375 C 9.546875 4.171875 9.796875 4.1875 10.171875 4.296875 C 10.515625 4.359375 10.859375 4.390625 11.21875 4.421875 C 11.3125 4.4375 11.421875 4.453125 11.515625 4.453125 C 11.625 4.46875 11.75 4.453125 11.921875 4.46875 C 11.96875 4.453125 12.046875 4.453125 12.109375 4.46875 C 12.15625 4.453125 12.25 4.4375 12.375 4.421875 C 12.640625 4.390625 12.84375 4.328125 13.015625 4.1875 C 13.34375 3.90625 13.46875 3.53125 13.3125 3.078125 C 13.3125 2.9375 13.265625 2.859375 13.203125 2.765625 C 13.140625 2.703125 13.046875 2.625 12.96875 2.578125 C 12.765625 2.46875 12.515625 2.390625 12.234375 2.421875 C 11.953125 2.453125 11.75 2.453125 11.578125 2.421875 C 11.234375 2.453125 10.828125 2.40625 10.390625 2.28125 L 10.3125 2.28125 C 10.03125 2.203125 9.71875 2.109375 9.40625 1.9375 C 9.28125 1.875 9.1875 1.84375 9.140625 1.84375 C 9.03125 1.765625 8.90625 1.6875 8.796875 1.640625 C 8.671875 1.609375 8.546875 1.53125 8.421875 1.40625 C 8.328125 1.359375 8.265625 1.296875 8.203125 1.28125 C 8.140625 1.21875 8.0625 1.171875 8.03125 1.140625 L 7.375 0.46875 C 7.3125 0.390625 7.171875 0.21875 7.015625 -0.125 C 7 -0.21875 6.96875 -0.3125 6.9375 -0.359375 C 6.921875 -0.453125 6.90625 -0.5 6.90625 -0.53125 C 6.890625 -0.59375 6.875 -0.625 6.859375 -0.71875 C 6.828125 -0.796875 6.828125 -0.890625 6.828125 -0.953125 C 6.8125 -1.03125 6.8125 -1.109375 6.796875 -1.140625 C 6.8125 -1.171875 6.84375 -1.234375 6.828125 -1.265625 C 6.859375 -1.296875 6.859375 -1.34375 6.859375 -1.40625 C 7.15625 -1.15625 7.4375 -0.96875 7.734375 -0.828125 C 8 -0.6875 8.390625 -0.609375 8.84375 -0.5625 C 9.015625 -0.546875 9.21875 -0.53125 9.453125 -0.59375 C 9.953125 -0.609375 10.453125 -0.8125 10.96875 -1.21875 C 11.078125 -1.3125 11.203125 -1.453125 11.28125 -1.640625 C 11.390625 -1.734375 11.5 -1.859375 11.546875 -2 C 11.625 -2.171875 11.703125 -2.34375 11.75 -2.5 C 11.8125 -2.65625 11.828125 -2.875 11.8125 -3.09375 C 11.859375 -3.25 11.828125 -3.421875 11.796875 -3.640625 C 11.78125 -4.09375 11.578125 -4.59375 11.140625 -5.125 C 10.734375 -5.640625 10.265625 -5.9375 9.75 -6.0625 L 9.578125 -6.09375 C 9.21875 -6.140625 8.84375 -6.125 8.46875 -6.046875 L 8.40625 -6.015625 C 8.15625 -5.9375 7.984375 -5.875 7.875 -5.828125 C 7.765625 -5.765625 7.640625 -5.6875 7.515625 -5.609375 C 7.390625 -5.5625 7.203125 -5.46875 7.03125 -5.375 L 6.640625 -5.0625 C 6.546875 -4.9375 6.4375 -4.796875 6.296875 -4.625 C 6.171875 -4.5 5.96875 -4.234375 5.71875 -3.875 L 5.46875 -3.46875 C 5.40625 -3.3125 5.34375 -3.15625 5.25 -3.03125 L 5.171875 -2.796875 C 5.09375 -2.5625 5 -2.34375 4.9375 -2.046875 L 4.828125 -1.546875 C 4.828125 -1.375 4.828125 -1.1875 4.796875 -0.96875 C 4.796875 -0.609375 4.84375 -0.296875 4.953125 0.03125 C 4.953125 0.078125 4.984375 0.109375 5 0.1875 C 5.03125 0.234375 5.03125 0.328125 5.0625 0.421875 C 5.109375 0.53125 5.140625 0.625 5.1875 0.75 L 5.765625 1.703125 Z M 5.921875 1.890625 "/></g></g></g><g fill="#a2bda2" fill-opacity="1"><g transform="translate(248.781879, 133.389442)"><g><path d="M 4.5625 2.578125 L 5 3.140625 L 5.21875 3.34375 C 5.578125 3.671875 5.875 3.890625 6.09375 4.03125 L 6.234375 4.109375 C 6.578125 4.3125 7.03125 4.5 7.625 4.65625 C 7.796875 4.703125 7.953125 4.734375 8.0625 4.765625 C 8.171875 4.796875 8.25 4.84375 8.34375 4.84375 C 8.421875 4.84375 8.5 4.875 8.5625 4.875 C 8.625 4.890625 8.703125 4.90625 8.75 4.921875 C 8.8125 4.921875 8.875 4.921875 8.890625 4.9375 L 9.9375 5.09375 L 10.296875 5.109375 L 11.0625 5.265625 C 11.34375 5.28125 11.59375 5.25 11.875 5.125 C 12.046875 5.03125 12.15625 4.890625 12.203125 4.71875 C 12.296875 4.53125 12.328125 4.328125 12.3125 4.125 C 12.3125 4.015625 12.28125 3.921875 12.234375 3.84375 C 12.078125 3.546875 11.796875 3.359375 11.421875 3.28125 C 11.375 3.28125 11.359375 3.25 11.3125 3.234375 C 11.3125 3.21875 11.25 3.234375 11.203125 3.234375 C 11.15625 3.21875 11.109375 3.1875 11.015625 3.203125 L 9.703125 3.03125 C 9.578125 3 9.4375 2.984375 9.328125 2.953125 C 9.3125 2.96875 9.265625 2.96875 9.234375 2.953125 C 9.171875 2.9375 9.140625 2.953125 9.109375 2.9375 C 8.96875 2.90625 8.890625 2.921875 8.78125 2.875 C 8.6875 2.84375 8.609375 2.828125 8.5625 2.828125 C 8.484375 2.8125 8.359375 2.78125 8.15625 2.734375 C 8.09375 2.6875 7.96875 2.640625 7.875 2.625 C 7.75 2.578125 7.640625 2.5625 7.609375 2.5625 C 7.5625 2.5 7.515625 2.484375 7.46875 2.46875 C 7.453125 2.46875 7.390625 2.453125 7.359375 2.4375 L 6.96875 2.21875 C 6.8125 2.0625 6.640625 1.9375 6.5 1.765625 C 6.4375 1.71875 6.375 1.6875 6.34375 1.625 C 6.3125 1.578125 6.28125 1.515625 6.28125 1.5 C 6.25 1.46875 6.21875 1.390625 6.15625 1.28125 C 6.09375 1.171875 6.0625 1.125 6.0625 1.109375 C 6.046875 1.078125 6.015625 0.953125 5.96875 0.703125 C 5.96875 0.65625 5.953125 0.609375 5.953125 0.59375 C 5.96875 0.546875 5.96875 0.5 6 0.4375 C 6.03125 0.375 6.046875 0.3125 6.0625 0.265625 C 6.0625 0.15625 6.078125 0.09375 6.09375 0.0625 C 6.109375 0.015625 6.140625 -0.0625 6.15625 -0.09375 C 6.1875 -0.140625 6.234375 -0.203125 6.265625 -0.234375 C 6.265625 -0.265625 6.28125 -0.296875 6.296875 -0.328125 L 6.5625 -0.65625 C 6.6875 -0.75 6.78125 -0.84375 6.875 -0.921875 C 6.96875 -1.03125 7.046875 -1.109375 7.109375 -1.140625 C 7.15625 -1.1875 7.203125 -1.21875 7.21875 -1.25 C 7.359375 -1.328125 7.53125 -1.4375 7.625 -1.53125 C 7.796875 -1.625 7.9375 -1.734375 8.03125 -1.8125 C 9.125 -2.40625 9.734375 -2.734375 9.828125 -2.765625 C 9.90625 -2.796875 10.296875 -3.015625 11.03125 -3.421875 C 11.25 -3.5 11.578125 -3.671875 11.984375 -3.90625 C 12.28125 -4.015625 12.578125 -4.1875 12.90625 -4.359375 L 14.8125 -5.296875 C 14.890625 -5.296875 14.953125 -5.34375 15.046875 -5.390625 C 15.0625 -5.390625 15.09375 -5.40625 15.140625 -5.421875 C 15.15625 -5.4375 15.171875 -5.453125 15.21875 -5.4375 C 15.21875 -5.4375 15.296875 -5.484375 15.46875 -5.546875 L 15.640625 -5.625 C 15.96875 -5.8125 16.140625 -6.078125 16.171875 -6.390625 C 16.1875 -6.59375 16.171875 -6.8125 16.078125 -6.984375 C 16.015625 -7.09375 15.90625 -7.21875 15.75 -7.328125 C 15.4375 -7.578125 15.015625 -7.578125 14.53125 -7.328125 L 14.328125 -7.265625 C 14.15625 -7.171875 13.96875 -7.109375 13.78125 -7.03125 L 13.25 -6.8125 C 12.96875 -6.65625 12.78125 -6.546875 12.703125 -6.515625 C 12.640625 -6.484375 12.5625 -6.4375 12.453125 -6.390625 C 12.34375 -6.328125 12.203125 -6.25 11.984375 -6.171875 C 11.65625 -5.984375 11.34375 -5.828125 11.0625 -5.6875 C 10.625 -5.453125 10.296875 -5.265625 10.09375 -5.1875 C 9.375 -4.78125 8.96875 -4.5625 8.875 -4.515625 C 8.78125 -4.5 8.5 -4.359375 8.0625 -4.109375 C 7.625 -3.875 7.359375 -3.734375 7.3125 -3.65625 C 7.21875 -3.609375 7.140625 -3.5625 7.046875 -3.515625 C 6.890625 -3.4375 6.515625 -3.21875 6 -2.859375 L 5.09375 -2.03125 L 4.703125 -1.5625 C 4.484375 -1.265625 4.34375 -0.984375 4.21875 -0.703125 L 4.09375 -0.40625 C 4.0625 -0.21875 4.03125 -0.03125 4.015625 0.203125 C 3.96875 0.375 3.984375 0.5625 4 0.78125 C 4.015625 0.953125 4.015625 1.15625 4.03125 1.359375 C 4.109375 1.65625 4.234375 2 4.4375 2.375 Z M 4.5625 2.578125 "/></g></g></g></svg>